<svg width="58" height="58" viewBox="0 0 58 58" fill="none" xmlns="http://www.w3.org/2000/svg">
<circle opacity="0.2" cx="29" cy="29" r="29" fill="white"/>
<path d="M44.0001 22.6009V14H35.3827" stroke="#B1FFFA" stroke-width="2" stroke-linecap="round" stroke-linejoin="round"/>
<path d="M33.9464 24.0344L44 14" stroke="#B1FFFA" stroke-width="2" stroke-linecap="round" stroke-linejoin="round"/>
<path d="M42.5638 36.8212V41.1217C42.5655 41.5209 42.4835 41.9161 42.3233 42.2819C42.1631 42.6477 41.928 42.976 41.6333 43.2459C41.3385 43.5158 40.9906 43.7213 40.6117 43.8492C40.2327 43.9771 39.8312 44.0246 39.4329 43.9886C35.0134 43.5094 30.7681 42.0021 27.0382 39.5879C23.5681 37.387 20.626 34.4505 18.4209 30.987C15.9936 27.2473 14.4831 22.9896 14.0117 18.5587C13.9758 18.1623 14.023 17.7628 14.1503 17.3856C14.2775 17.0084 14.4821 16.6618 14.751 16.3678C15.0198 16.0739 15.3471 15.839 15.7118 15.6782C16.0766 15.5174 16.471 15.4341 16.8697 15.4337H21.1784C21.8754 15.4269 22.5512 15.6732 23.0797 16.1269C23.6081 16.5805 23.9533 17.2105 24.0509 17.8993C24.2327 19.2756 24.57 20.6268 25.0562 21.9274C25.2495 22.4405 25.2913 22.9981 25.1768 23.5342C25.0622 24.0702 24.7961 24.5623 24.4099 24.952L22.5859 26.7726C24.6305 30.3613 27.6076 33.3328 31.2033 35.3734L33.0273 33.5529C33.4178 33.1675 33.9108 32.9019 34.4479 32.7876C34.985 32.6732 35.5437 32.715 36.0577 32.9078C37.3608 33.3932 38.7147 33.7298 40.0935 33.9113C40.7912 34.0095 41.4284 34.3603 41.8838 34.8968C42.3393 35.4333 42.5813 36.1182 42.5638 36.8212Z" stroke="#B1FFFA" stroke-width="2" stroke-linecap="round" stroke-linejoin="round"/>
</svg>
