<svg width="80" height="80" viewBox="0 0 80 80" fill="none" xmlns="http://www.w3.org/2000/svg">
<path d="M19.199 52.2739C14.9238 52.2739 11.4471 55.7506 11.4471 60.0258C11.4471 64.3011 14.9238 67.7778 19.199 67.7778C23.4742 67.7778 26.9509 64.3011 26.9509 60.0258C26.9509 55.7506 23.4741 52.2739 19.199 52.2739ZM19.199 65.1937C16.3488 65.1937 14.0311 62.8759 14.0311 60.0258C14.0311 57.1757 16.349 54.858 19.199 54.858C22.0491 54.858 24.3669 57.1758 24.3669 60.0258C24.3669 62.8759 22.0491 65.1937 19.199 65.1937Z" fill="#EE1F23"/>
<path d="M63.1266 52.2739C58.8514 52.2739 55.3746 55.7506 55.3746 60.0258C55.3746 64.3011 58.8514 67.7778 63.1266 67.7778C67.4018 67.7778 70.8785 64.3011 70.8785 60.0258C70.8785 55.7506 67.4018 52.2739 63.1266 52.2739ZM63.1266 65.1937C60.2764 65.1937 57.9587 62.8759 57.9587 60.0258C57.9587 57.1757 60.2765 54.858 63.1266 54.858C65.9768 54.858 68.2945 57.1758 68.2945 60.0258C68.2945 62.8759 65.9768 65.1937 63.1266 65.1937Z" fill="#EE1F23"/>
<path d="M78.4249 45.115L66.7971 27.0271C66.5594 26.6576 66.1498 26.4341 65.7104 26.4341H51.4987C50.7842 26.4341 50.2067 27.0129 50.2067 27.726V60.0256C50.2067 60.7401 50.7842 61.3176 51.4987 61.3176H56.6666V58.7335H52.7906V29.0181H65.005L76.0464 46.1938V58.7339H69.5864V61.3177H77.3383C78.0528 61.3177 78.6302 60.7403 78.6302 60.0258V45.8139C78.6304 45.5671 78.5594 45.3229 78.4249 45.115Z" fill="#EE1F23"/>
<path d="M57.9587 43.2299V34.1861H68.2946V31.6021H56.6667C55.9522 31.6021 55.3748 32.1809 55.3748 32.894V44.5219C55.3748 45.2363 55.9522 45.8138 56.6667 45.8138H76.0465V43.2298H57.9587V43.2299Z" fill="#EE1F23"/>
<path d="M51.4986 17.3904H2.40308C1.68997 17.3904 1.11115 17.9692 1.11115 18.6823V60.0259C1.11115 60.7404 1.68997 61.3179 2.40308 61.3179H12.739V58.7339H3.69517V19.9743H50.2067V58.7339H25.6588V61.3179H51.4986C52.2131 61.3179 52.7906 60.7404 52.7906 60.0259V18.6823C52.7906 17.9692 52.2131 17.3904 51.4986 17.3904Z" fill="#EE1F23"/>
<path d="M10.155 53.5659H2.40305V56.1499H10.155V53.5659Z" fill="#EE1F23"/>
<path d="M50.2067 53.5659H28.2429V56.1499H50.2067V53.5659Z" fill="#EE1F23"/>
<path d="M77.3383 53.5659H72.1704V56.1499H77.3383V53.5659Z" fill="#EE1F23"/>
<path d="M51.4986 22.5581H6.27905V25.1421H51.4986V22.5581Z" fill="#EE1F23"/>
<path d="M20.491 58.7336H17.9069V61.3177H20.491V58.7336Z" fill="#EE1F23"/>
<path d="M64.4186 58.7336H61.8346V61.3177H64.4186V58.7336Z" fill="#EE1F23"/>
<path d="M24.3669 12.2222H6.27905V14.8062H24.3669V12.2222Z" fill="#EE1F23"/>
<path d="M3.69514 12.2222H1.11111V14.8062H3.69514V12.2222Z" fill="#EE1F23"/>
</svg>
