<svg width="80" height="80" viewBox="0 0 80 80" fill="none" xmlns="http://www.w3.org/2000/svg">
<path d="M75.8979 48.6396C75.4319 48.4544 74.8998 48.5702 74.5535 48.9327L69.3335 54.4196V21.8288H69.3396L74.3202 16.451C74.7784 15.9559 74.7482 15.1821 74.2525 14.7239C74.2525 14.7239 74.2519 14.7233 74.2514 14.7228L72.4588 13.0544L74.9496 10.3655C75.4073 9.86977 75.3765 9.09656 74.8808 8.6389L69.503 3.65833C69.0078 3.2001 68.2346 3.22976 67.7764 3.72546L59.0864 13.1087H16.7779C16.7739 9.73494 14.0403 7.00127 10.6666 6.99736H9.44464C6.07092 7.00127 3.33726 9.73494 3.33334 13.1087V65.6642C3.33334 66.339 3.88052 66.8862 4.55583 66.8862H23.0576L20.4906 69.9684C20.0593 70.4876 20.1298 71.258 20.6484 71.6894L26.2841 76.3818C26.8028 76.8137 27.5738 76.7432 28.0057 76.2246L28.0062 76.224L34.2619 68.7084C34.6938 68.1881 34.9719 67.5564 35.0636 66.8862H57.4594L50.1139 74.5998C49.649 75.0888 49.6685 75.8626 50.1575 76.3276C50.3847 76.5435 50.6862 76.6644 51.0001 76.6638H75.4442C76.1195 76.6638 76.6667 76.1166 76.6667 75.4419V49.7753C76.6667 49.2751 76.3623 48.8253 75.8979 48.6396ZM71.6962 15.675L69.3335 18.2308V16.4331L70.7999 14.8442L71.6962 15.675ZM66.889 15.4574V15.4747L56.5525 26.646L52.9628 23.3249L65.4148 9.86809L69.0045 13.1892L66.9036 15.4574H66.889ZM54.2049 27.802L51.3934 28.6222L51.9938 25.7548L54.2049 27.802ZM68.7359 6.28009L72.3239 9.59954L70.6634 11.3972L67.0748 8.07437L68.7359 6.28009ZM9.44464 9.44176H10.6666C12.6919 9.44176 14.3335 11.0833 14.3335 13.1087V59.5848C13.2816 58.7758 11.9931 58.3349 10.6666 58.3305H9.44464C8.11753 58.3349 6.82959 58.7758 5.77775 59.5848V13.1087C5.77775 11.0833 7.41929 9.44176 9.44464 9.44176ZM9.44464 60.7749H10.6666C12.6919 60.7749 14.3335 62.417 14.3335 64.4418H5.77775C5.77775 62.417 7.41929 60.7749 9.44464 60.7749ZM32.3842 67.1452L31.6021 68.084L27.8451 64.9565L28.6262 64.0166C29.0581 63.4979 29.8285 63.4274 30.3471 63.8593C30.3477 63.8593 30.3477 63.8599 30.3483 63.8599L32.2265 65.4198C32.7457 65.8511 32.8167 66.6215 32.3854 67.1407C32.3848 67.1413 32.3848 67.1413 32.3842 67.1419V67.1452ZM26.9102 73.7209L23.1527 70.5933L26.2808 66.8347L30.0378 69.9628L26.9102 73.7209ZM34.55 64.4418C34.3469 64.1033 34.0901 63.8006 33.7897 63.5449L31.9115 61.9817C30.355 60.6859 28.0432 60.8968 26.7474 62.4533L25.0891 64.4418H16.7779V15.5531H56.825L50.3388 22.5623C50.2459 22.667 50.1721 22.7878 50.1212 22.9182C50.1066 22.9534 50.0954 22.9864 50.0831 23.0234C50.0714 23.0597 50.0529 23.0967 50.044 23.1358L48.5848 30.1121C48.4472 30.7728 48.8713 31.4202 49.532 31.5578C49.7284 31.5986 49.9315 31.5908 50.1234 31.5349L56.9682 29.5403C57.0001 29.5302 57.0269 29.5118 57.0572 29.5011C57.0879 29.4899 57.1198 29.4743 57.1528 29.458C57.2899 29.3959 57.4141 29.3081 57.5193 29.2001L66.889 19.0739V56.986L59.788 64.4418H34.55ZM74.2223 74.2194H53.8513L74.2223 52.8307V74.2194Z" fill="#EE1F23"/>
<path d="M60.8708 71.0208C61.0599 71.4773 61.5059 71.7749 62.0004 71.7749H70.5556C71.2309 71.7749 71.7781 71.2278 71.7781 70.553V61.9973C71.7781 61.322 71.2303 60.7754 70.5556 60.7754C70.2316 60.7754 69.9206 60.9041 69.6917 61.1335L61.136 69.6886C60.7864 70.0383 60.6817 70.5642 60.8708 71.0208ZM69.3337 64.9475V69.3305H64.9506L69.3337 64.9475Z" fill="#EE1F23"/>
<path d="M57.1109 49.7754H48.5558V36.3309C48.5541 36.0064 48.4249 35.6953 48.196 35.4653L40.8628 28.1321C40.3856 27.6549 39.6118 27.6549 39.1346 28.1321L31.8013 35.4653C31.5736 35.6958 31.4455 36.0069 31.4444 36.3309V49.7754H22.8892C22.2139 49.7754 21.6667 50.3226 21.6667 50.9973C21.6667 51.6726 22.2139 52.2198 22.8892 52.2198H57.1115C57.7862 52.2198 58.3334 51.6726 58.3334 50.9973C58.3334 50.3226 57.7862 49.7754 57.1109 49.7754ZM40.0001 30.7253L44.3831 35.1084H35.617L40.0001 30.7253ZM33.8888 37.5528H46.1114V49.7754H33.8888V37.5528Z" fill="#EE1F23"/>
<path d="M38.7775 22.8862H41.2225V25.3306H38.7775V22.8862Z" fill="#EE1F23"/>
<path d="M38.7775 54.6641H41.2225V57.1085H38.7775V54.6641Z" fill="#EE1F23"/>
</svg>
